<?xml version="1.0" standalone="no"?>
<!DOCTYPE svg PUBLIC "-//W3C//DTD SVG 20010904//EN"
 "http://www.w3.org/TR/2001/REC-SVG-20010904/DTD/svg10.dtd">
<svg version="1.0" xmlns="http://www.w3.org/2000/svg"
 width="2000.000000pt" height="2000.000000pt" viewBox="0 0 2000.000000 2000.000000"
 preserveAspectRatio="xMidYMid meet">
<metadata>
Created by potrace 1.11, written by Peter Selinger 2001-2013
</metadata>
<g transform="translate(0.000000,2000.000000) scale(0.100000,-0.100000)"
fill="#000000" stroke="none">
<path d="M9705 16979 c-2556 -160 -4821 -1658 -5970 -3948 -608 -1211 -857
-2578 -719 -3936 247 -2438 1725 -4577 3923 -5680 1211 -607 2578 -857 3936
-719 957 97 1897 391 2737 855 294 162 766 471 698 456 -14 -3 -99 -17 -190
-31 -497 -76 -1047 -101 -1375 -63 -886 103 -1543 281 -2170 587 -660 322
-1222 789 -1653 1371 -523 708 -879 1636 -1046 2729 -91 597 -121 1072 -92
1450 96 1228 334 2197 746 3035 361 735 818 1298 1415 1745 823 616 1879 971
3144 1058 187 13 548 -12 855 -58 71 -11 131 -18 133 -16 2 2 -54 40 -125 84
-938 586 -1989 947 -3077 1056 -351 36 -836 46 -1170 25z"/>
<path d="M12889 15060 c-1538 -188 -2626 -841 -3329 -2000 -101 -166 -289
-547 -363 -735 -255 -647 -405 -1343 -483 -2235 -22 -251 -8 -536 51 -1020
308 -2523 1508 -3996 3580 -4394 364 -69 576 -90 844 -83 1026 29 1880 315
2528 846 220 180 286 250 408 436 782 1190 1185 2532 1185 3950 0 892 -158
1749 -477 2579 -270 702 -558 1157 -1014 1601 -619 602 -1398 946 -2375 1050
-235 25 -384 26 -555 5z"/>
</g>
</svg>
